# This file uses centimeters as units for non-parametric coordinates.

mtllib Chimney.mtl
g default
v -0.300000 -0.300000 0.300000
v 0.300000 -0.300000 0.300000
v -0.300000 0.300000 0.300000
v 0.300000 0.300000 0.300000
v -0.300000 0.300000 -0.300000
v 0.300000 0.300000 -0.300000
v -0.300000 -0.300000 -0.300000
v 0.300000 -0.300000 -0.300000
vt 0.467188 0.102507
vt 0.532812 0.102507
vt 0.467188 0.168132
vt 0.532812 0.168132
vt 0.467188 0.233757
vt 0.532812 0.233757
vt 0.467188 0.299381
vt 0.532812 0.299381
vt 0.467188 0.365006
vt 0.532812 0.365006
vt 0.598437 0.102507
vt 0.598437 0.168132
vt 0.401563 0.102507
vt 0.401563 0.168132
vn 0.000000 0.000000 1.000000
vn 0.000000 0.000000 1.000000
vn 0.000000 0.000000 1.000000
vn 0.000000 0.000000 1.000000
vn 0.000000 1.000000 0.000000
vn 0.000000 1.000000 0.000000
vn 0.000000 1.000000 0.000000
vn 0.000000 1.000000 0.000000
vn 0.000000 0.000000 -1.000000
vn 0.000000 0.000000 -1.000000
vn 0.000000 0.000000 -1.000000
vn 0.000000 0.000000 -1.000000
vn 0.000000 -1.000000 0.000000
vn 0.000000 -1.000000 0.000000
vn 0.000000 -1.000000 0.000000
vn 0.000000 -1.000000 0.000000
vn 1.000000 0.000000 0.000000
vn 1.000000 0.000000 0.000000
vn 1.000000 0.000000 0.000000
vn 1.000000 0.000000 0.000000
vn -1.000000 0.000000 0.000000
vn -1.000000 0.000000 0.000000
vn -1.000000 0.000000 0.000000
vn -1.000000 0.000000 0.000000
s 1
g ChimParent
usemtl lambert2SG
f 1/1/1 2/2/2 3/3/3
f 3/3/3 2/2/2 4/4/4
s 2
f 3/3/5 4/4/6 5/5/7
f 5/5/7 4/4/6 6/6/8
s 3
f 5/5/9 6/6/10 7/7/11
f 7/7/11 6/6/10 8/8/12
s 4
f 7/7/13 8/8/14 1/9/15
f 1/9/15 8/8/14 2/10/16
s 5
f 2/2/17 8/11/18 4/4/19
f 4/4/19 8/11/18 6/12/20
s 6
f 7/13/21 1/1/22 5/14/23
f 5/14/23 1/1/22 3/3/24
g default
v -0.275000 0.250000 0.275000
v 0.275000 0.250000 0.275000
v -0.275000 0.350000 0.275000
v 0.275000 0.350000 0.275000
v -0.275000 0.350000 -0.275000
v 0.275000 0.350000 -0.275000
v -0.275000 0.250000 -0.275000
v 0.275000 0.250000 -0.275000
vt 0.479659 0.463546
vt 0.520341 0.463546
vt 0.479659 0.504228
vt 0.520341 0.504228
vt 0.479659 0.544909
vt 0.520341 0.544909
vt 0.479659 0.585590
vt 0.520341 0.585590
vt 0.479659 0.626270
vt 0.520341 0.626270
vt 0.561022 0.463546
vt 0.561022 0.504228
vt 0.438978 0.463546
vt 0.438978 0.504228
vn 0.000000 0.000000 1.000000
vn 0.000000 0.000000 1.000000
vn 0.000000 0.000000 1.000000
vn 0.000000 0.000000 1.000000
vn 0.000000 1.000000 0.000000
vn 0.000000 1.000000 0.000000
vn 0.000000 1.000000 0.000000
vn 0.000000 1.000000 0.000000
vn 0.000000 0.000000 -1.000000
vn 0.000000 0.000000 -1.000000
vn 0.000000 0.000000 -1.000000
vn 0.000000 0.000000 -1.000000
vn 0.000000 -1.000000 0.000000
vn 0.000000 -1.000000 0.000000
vn 0.000000 -1.000000 0.000000
vn 0.000000 -1.000000 0.000000
vn 1.000000 0.000000 0.000000
vn 1.000000 0.000000 0.000000
vn 1.000000 0.000000 0.000000
vn 1.000000 0.000000 0.000000
vn -1.000000 0.000000 0.000000
vn -1.000000 0.000000 0.000000
vn -1.000000 0.000000 0.000000
vn -1.000000 0.000000 0.000000
s 1
g ChimParent Inside
usemtl lambert2SG
f 9/15/25 10/16/26 11/17/27
f 11/17/27 10/16/26 12/18/28
s 2
f 11/17/29 12/18/30 13/19/31
f 13/19/31 12/18/30 14/20/32
s 3
f 13/19/33 14/20/34 15/21/35
f 15/21/35 14/20/34 16/22/36
s 4
f 15/21/37 16/22/38 9/23/39
f 9/23/39 16/22/38 10/24/40
s 5
f 10/16/41 16/25/42 12/18/43
f 12/18/43 16/25/42 14/26/44
s 6
f 15/27/45 9/15/46 13/28/47
f 13/28/47 9/15/46 11/17/48
g default
v 0.265165 0.175000 -0.265165
v -0.265165 0.175000 -0.265165
v -0.265165 0.175000 0.265165
v 0.265165 0.175000 0.265165
v 0.265165 0.425000 -0.265165
v -0.265165 0.425000 -0.265165
v -0.265165 0.425000 0.265165
v 0.265165 0.425000 0.265165
v 0.353553 0.425000 -0.353553
v -0.353553 0.425000 -0.353553
v -0.353553 0.425000 0.353553
v 0.353553 0.425000 0.353553
v 0.353553 0.175000 -0.353553
v -0.353553 0.175000 -0.353553
v -0.353553 0.175000 0.353553
v 0.353553 0.175000 0.353553
vt 0.402104 0.899425
vt 0.451052 0.899425
vt 0.500000 0.899425
vt 0.548948 0.899425
vt 0.597896 0.899425
vt 0.402104 0.850477
vt 0.451052 0.850477
vt 0.500000 0.850477
vt 0.548948 0.850477
vt 0.597896 0.850477
vt 0.402104 0.801529
vt 0.451052 0.801529
vt 0.500000 0.801529
vt 0.548948 0.801529
vt 0.597896 0.801529
vt 0.402104 0.752580
vt 0.451052 0.752580
vt 0.500000 0.752580
vt 0.548948 0.752580
vt 0.597896 0.752580
vt 0.402104 0.703632
vt 0.451052 0.703632
vt 0.500000 0.703632
vt 0.548948 0.703632
vt 0.597896 0.703632
vn 0.000000 0.000000 1.000000
vn 0.000000 0.000000 1.000000
vn 0.000000 0.000000 1.000000
vn 0.000000 0.000000 1.000000
vn 1.000000 0.000000 -0.000000
vn 1.000000 0.000000 -0.000000
vn 1.000000 0.000000 -0.000000
vn 1.000000 0.000000 -0.000000
vn -0.000000 0.000000 -1.000000
vn -0.000000 0.000000 -1.000000
vn -0.000000 0.000000 -1.000000
vn -0.000000 0.000000 -1.000000
vn -1.000000 0.000000 0.000000
vn -1.000000 0.000000 0.000000
vn -1.000000 0.000000 0.000000
vn -1.000000 0.000000 0.000000
vn -0.000000 1.000000 -0.000000
vn -0.000000 1.000000 -0.000000
vn -0.000000 1.000000 -0.000000
vn -0.000000 1.000000 -0.000000
vn 0.000000 1.000000 0.000000
vn 0.000000 1.000000 0.000000
vn -0.000000 1.000000 -0.000000
vn -0.000000 1.000000 -0.000000
vn 0.000000 0.000000 -1.000000
vn 0.000000 0.000000 -1.000000
vn 0.000000 0.000000 -1.000000
vn 0.000000 0.000000 -1.000000
vn -1.000000 0.000000 0.000000
vn -1.000000 0.000000 0.000000
vn -1.000000 0.000000 0.000000
vn -1.000000 0.000000 0.000000
vn 0.000000 0.000000 1.000000
vn 0.000000 0.000000 1.000000
vn 0.000000 0.000000 1.000000
vn 0.000000 0.000000 1.000000
vn 1.000000 -0.000000 -0.000000
vn 1.000000 -0.000000 -0.000000
vn 1.000000 -0.000000 -0.000000
vn 1.000000 0.000000 -0.000000
vn -0.000000 -1.000000 -0.000000
vn -0.000000 -1.000000 -0.000000
vn -0.000000 -1.000000 -0.000000
vn -0.000000 -1.000000 -0.000000
vn 0.000000 -1.000000 0.000000
vn 0.000000 -1.000000 0.000000
vn -0.000000 -1.000000 -0.000000
vn -0.000000 -1.000000 -0.000000
s 1
g ChimParent ChimRoof
usemtl lambert2SG
f 18/30/49 17/29/50 22/35/51
f 22/35/51 17/29/50 21/34/52
s 2
f 19/31/53 18/30/54 23/36/55
f 23/36/55 18/30/54 22/35/56
s 3
f 20/32/57 19/31/58 24/37/59
f 24/37/59 19/31/58 23/36/60
s 4
f 17/33/61 20/32/62 21/38/63
f 21/38/63 20/32/62 24/37/64
s 5
f 22/35/65 21/34/66 26/40/67
f 26/40/67 21/34/66 25/39/68
f 23/36/69 22/35/65 27/41/70
f 27/41/70 22/35/65 26/40/67
f 24/37/71 23/36/69 28/42/72
f 28/42/72 23/36/69 27/41/70
f 21/38/66 24/37/71 25/43/68
f 25/43/68 24/37/71 28/42/72
s 6
f 26/40/73 25/39/74 30/45/75
f 30/45/75 25/39/74 29/44/76
s 7
f 27/41/77 26/40/78 31/46/79
f 31/46/79 26/40/78 30/45/80
s 8
f 28/42/81 27/41/82 32/47/83
f 32/47/83 27/41/82 31/46/84
s 9
f 25/43/85 28/42/86 29/48/87
f 29/48/87 28/42/86 32/47/88
s 10
f 30/45/89 29/44/90 18/50/91
f 18/50/91 29/44/90 17/49/92
f 31/46/93 30/45/89 19/51/94
f 19/51/94 30/45/89 18/50/91
f 32/47/95 31/46/93 20/52/96
f 20/52/96 31/46/93 19/51/94
f 29/48/90 32/47/95 17/53/92
f 17/53/92 32/47/95 20/52/96
